<svg xmlns="http://www.w3.org/2000/svg" xmlns:xlink="http://www.w3.org/1999/xlink" width="500" zoomAndPan="magnify" viewBox="0 0 375 210.749996" height="281" preserveAspectRatio="xMidYMid meet" version="1.0"><defs><clipPath id="ab648ff26d"><path d="M 0.222656 63 L 374.777344 63 L 374.777344 148 L 0.222656 148 Z M 0.222656 63 " clip-rule="nonzero"/></clipPath></defs><g clip-path="url(#ab648ff26d)"><path fill="#000000" d="M 187.074219 84.257812 C 172.449219 84.257812 161.90625 93.796875 161.90625 108.105469 C 161.90625 122.414062 173.773438 131.953125 188.402344 131.953125 C 197.238281 131.953125 205.027344 128.453125 209.851562 122.558594 L 199.714844 116.703125 C 197.039062 119.628906 192.972656 121.339844 188.402344 121.339844 C 182.054688 121.339844 176.664062 118.027344 174.664062 112.726562 L 211.785156 112.726562 C 212.074219 111.246094 212.246094 109.707031 212.246094 108.089844 C 212.246094 93.796875 201.703125 84.257812 187.074219 84.257812 Z M 174.542969 103.46875 C 176.199219 98.183594 180.730469 94.855469 187.0625 94.855469 C 193.410156 94.855469 197.941406 98.183594 199.582031 103.46875 Z M 329.734375 84.257812 C 315.109375 84.257812 304.5625 93.796875 304.5625 108.105469 C 304.5625 122.414062 316.433594 131.953125 331.058594 131.953125 C 339.894531 131.953125 347.683594 128.453125 352.507812 122.558594 L 342.371094 116.703125 C 339.695312 119.628906 335.628906 121.339844 331.058594 121.339844 C 324.710938 121.339844 319.320312 118.027344 317.320312 112.726562 L 354.441406 112.726562 C 354.734375 111.246094 354.90625 109.707031 354.90625 108.089844 C 354.90625 93.796875 344.359375 84.257812 329.734375 84.257812 Z M 317.214844 103.46875 C 318.871094 98.183594 323.402344 94.855469 329.734375 94.855469 C 336.078125 94.855469 340.609375 98.183594 342.253906 103.46875 Z M 265.507812 108.105469 C 265.507812 116.054688 270.699219 121.351562 278.753906 121.351562 C 284.210938 121.351562 288.304688 118.875 290.414062 114.835938 L 300.585938 120.703125 C 296.375 127.726562 288.476562 131.953125 278.753906 131.953125 C 264.113281 131.953125 253.582031 122.414062 253.582031 108.105469 C 253.582031 93.796875 264.128906 84.257812 278.753906 84.257812 C 288.476562 84.257812 296.359375 88.484375 300.585938 95.503906 L 290.414062 101.375 C 288.304688 97.332031 284.210938 94.855469 278.753906 94.855469 C 270.710938 94.855469 265.507812 100.15625 265.507812 108.105469 Z M 374.777344 69.683594 L 374.777344 130.625 L 362.855469 130.625 L 362.855469 69.683594 Z M 49.175781 63.058594 L 98.128906 147.847656 L 0.222656 147.847656 Z M 171.5625 69.683594 L 134.851562 133.277344 L 98.140625 69.683594 L 111.90625 69.683594 L 134.851562 109.429688 L 157.796875 69.683594 Z M 249.609375 85.582031 L 249.609375 98.421875 C 248.28125 98.035156 246.878906 97.769531 245.367188 97.769531 C 237.671875 97.769531 232.121094 103.070312 232.121094 111.019531 L 232.121094 130.625 L 220.195312 130.625 L 220.195312 85.582031 L 232.121094 85.582031 L 232.121094 97.769531 C 232.121094 91.039062 239.949219 85.582031 249.609375 85.582031 Z M 249.609375 85.582031 " fill-opacity="1" fill-rule="nonzero"/></g></svg>